PathFileType	4	(X/Y/Z)	C:/Users/opensim2020/Desktop/walking_exp_matlab/subject06_walking12_straigt_03.trc	
DataRate	CameraRate	NumFrames	NumMarkers	Units	OrigDataRate	OrigDataStartFrame	OrigNumFrames	
100.00	100.00	9	48	mm	100.00	2141	184	
Frame#	Time	LFHD			RFHD			LBHD			RBHD			C7			T10			CLAV			STRN			RBAK			LSHO			LUPA			LELB			LFRM			LWRA			LWRB			LFIN			RSHO			RUPA			RELB			RFRM			RWRA			RWRB			RFIN			LASI			RASI			LPSI			RPSI			LTHI			LKNE			LTIB			LANK			LHEE			LTOE			RTHI			RKNE			RTIB			RANK			RHEE			RTOE			*39			*40			*41			*42			*43			*44			*45			*46			*47			
		X1	Y1	Z1	X2	Y2	Z2	X3	Y3	Z3	X4	Y4	Z4	X5	Y5	Z5	X6	Y6	Z6	X7	Y7	Z7	X8	Y8	Z8	X9	Y9	Z9	X10	Y10	Z10	X11	Y11	Z11	X12	Y12	Z12	X13	Y13	Z13	X14	Y14	Z14	X15	Y15	Z15	X16	Y16	Z16	X17	Y17	Z17	X18	Y18	Z18	X19	Y19	Z19	X20	Y20	Z20	X21	Y21	Z21	X22	Y22	Z22	X23	Y23	Z23	X24	Y24	Z24	X25	Y25	Z25	X26	Y26	Z26	X27	Y27	Z27	X28	Y28	Z28	X29	Y29	Z29	X30	Y30	Z30	X31	Y31	Z31	X32	Y32	Z32	X33	Y33	Z33	X34	Y34	Z34	X35	Y35	Z35	X36	Y36	Z36	X37	Y37	Z37	X38	Y38	Z38	X39	Y39	Z39	X40	Y40	Z40	X41	Y41	Z41	X42	Y42	Z42	X43	Y43	Z43	X44	Y44	Z44	X45	Y45	Z45	X46	Y46	Z46	X47	Y47	Z47	X48	Y48	Z48	

70	0.690	-1041.24048	-97.88853	1657.93298	-909.87830	-103.13613	1646.15515	-1047.63147	-231.62715	1606.99097	-918.56860	-235.32478	1600.26636	-983.44843	-238.21571	1448.85657	-966.10626	-282.02084	1121.19482	-988.21979	-130.85841	1367.06506	-991.14874	-97.41387	1191.16785	-891.01495	-310.39377	1283.54041	-1146.08447	-198.97156	1399.06494	-1210.34448	-254.30026	1203.69324	-1216.27942	-289.36566	1096.69360	-1235.65967	-306.34726	946.59442	-1192.90601	-275.39935	820.60883	-1229.05139	-336.77808	831.55170	-1227.58252	-318.90225	741.82544	-825.61401	-164.62923	1407.03699	-726.10114	-180.03032	1212.15759	-708.02008	-152.22969	1095.02795	-693.82983	-93.71819	991.43353	-734.24982	15.33866	891.92078	-692.18372	-31.13604	869.35272	-692.92474	34.57823	818.17584	-1077.02368	-106.06046	961.19403	-859.25604	-110.17023	962.04614	-1054.90308	-264.38199	985.28967	-886.46771	-260.18347	990.91431	-1149.39233	-102.72366	654.40161	-1126.34583	-44.09307	501.78027	-1118.48779	-68.33242	248.53447	-1080.82495	-58.83619	75.81963	-1029.43481	-91.95944	58.75319	-1094.80969	82.53940	51.58991	-811.49847	-199.87355	629.68042	-831.61853	-216.92320	504.24854	-837.97998	-315.27432	252.56081	-887.42114	-361.69812	71.75794	-932.53217	-404.35074	50.81121	-880.71960	-212.52309	30.34151	-985.90869	-199.02063	1698.56702																								 
71	0.700	-1042.22253	-87.75222	1656.13086	-910.75214	-92.85925	1644.61511	-1048.44324	-221.41434	1605.22729	-919.35760	-225.19263	1598.67639	-984.14948	-228.05411	1447.17456	-966.74408	-272.29459	1119.61572	-988.90936	-120.77694	1365.37256	-991.53979	-87.41958	1189.44873	-891.63776	-300.37741	1282.01135	-1146.70972	-189.14308	1397.43787	-1210.49597	-246.39656	1202.77429	-1216.19934	-282.67435	1096.15491	-1235.29163	-301.63339	946.26569	-1192.66638	-271.85355	819.98132	-1228.38086	-333.48132	831.60791	-1227.14856	-316.97177	741.57672	-826.37469	-154.62947	1405.53162	-726.64313	-169.30785	1210.83801	-708.33105	-141.04947	1093.90503	-694.25275	-81.18117	991.19537	-735.09741	29.23658	893.53705	-692.95813	-16.74011	870.14050	-693.90912	49.82637	820.06744	-1077.18457	-95.73106	959.73187	-859.48071	-100.73292	960.41034	-1055.81775	-254.24335	983.69769	-887.31921	-250.71591	989.35486	-1149.63086	-94.90440	651.92871	-1126.22510	-35.53211	499.69586	-1119.52075	-47.42019	245.44672	-1082.75854	-28.31509	73.17554	-1031.49011	-60.68040	54.60562	-1095.83777	113.79289	54.67176	-812.20154	-192.29793	628.44696	-832.05145	-210.75847	503.14374	-838.63086	-312.32956	252.64912	-887.84869	-361.12592	72.42717	-933.00708	-404.00684	51.82508	-880.75470	-212.34050	30.26129	-986.84644	-188.85533	1696.85901																								 
72	0.710	-1043.23108	-77.52493	1654.09192	-911.64679	-82.69276	1642.85730	-1049.34912	-211.20499	1603.36572	-920.19116	-214.94162	1596.91992	-984.95471	-217.83826	1445.41553	-967.63788	-262.36688	1117.89868	-989.63116	-110.54819	1363.58643	-992.06610	-77.46867	1187.61877	-892.33893	-290.35242	1280.38062	-1147.40771	-179.16191	1395.70349	-1210.70850	-238.13956	1201.80432	-1215.93579	-275.80527	1095.57483	-1234.96240	-296.56989	945.84222	-1192.54932	-267.83795	819.25586	-1227.62219	-329.48114	831.44653	-1226.41943	-313.95319	741.47064	-827.17676	-144.52336	1403.87073	-727.10840	-158.73431	1209.38342	-708.77246	-130.03586	1092.63562	-694.83698	-68.97073	990.81903	-736.03436	42.75470	894.81934	-693.78400	-2.76620	870.77222	-694.94446	64.59895	821.69720	-1077.85291	-84.82124	958.33594	-859.79761	-91.35424	958.69330	-1056.90820	-244.04672	981.87158	-888.32831	-241.19983	987.62274	-1150.20337	-87.08912	649.21545	-1126.15698	-27.08606	497.42096	-1120.74976	-27.18667	242.83957	-1084.78101	1.24494	71.47063	-1033.71472	-30.40406	51.76355	-1097.07629	145.13564	59.51142	-812.93390	-184.68840	627.19843	-832.54523	-204.16762	501.97824	-839.31927	-309.15326	252.67517	-888.06769	-360.57571	73.39697	-933.42230	-403.71832	52.83031	-880.82556	-212.17470	30.12980	-987.79248	-178.61836	1695.10095																								 
73	0.720	-1044.27515	-67.35790	1652.07654	-912.60797	-72.45518	1641.04419	-1050.26807	-200.93626	1601.40930	-921.13013	-204.64270	1595.06165	-985.77509	-207.61102	1443.58057	-968.62042	-252.46684	1116.09412	-990.42120	-100.35160	1361.71057	-992.64063	-67.32082	1185.75085	-893.13617	-280.31509	1278.69482	-1148.20581	-168.97437	1393.88000	-1211.09082	-229.76422	1200.74670	-1216.03247	-268.42679	1094.85376	-1234.77148	-290.85040	945.32086	-1192.53772	-263.20828	818.47705	-1227.10352	-325.15906	831.34271	-1225.98328	-310.43503	741.14282	-828.03357	-134.39177	1402.11755	-727.79938	-148.30775	1207.74414	-709.27631	-119.07717	1091.24719	-695.41913	-56.85733	990.21863	-737.03107	56.01377	895.84558	-694.75281	10.97394	871.10510	-696.09766	78.90962	822.99677	-1078.19983	-74.49525	956.56561	-860.07086	-81.98138	956.87897	-1057.98621	-233.81174	979.95703	-889.38361	-231.56734	985.80316	-1151.21790	-79.12555	646.45789	-1126.29333	-18.72164	495.11475	-1122.04614	-7.61462	240.81174	-1086.77588	29.43666	70.78242	-1035.87781	-1.59787	49.85152	-1098.07166	174.09244	64.24236	-813.64270	-176.76929	625.92511	-833.15027	-197.12024	500.74579	-839.95087	-305.59299	252.66039	-888.55823	-359.93701	74.09570	-933.71735	-403.36536	54.08416	-880.88574	-212.11906	30.03078	-988.85846	-168.43906	1693.17017																								 
74	0.730	-1045.05151	-56.97299	1650.94067	-913.61353	-62.18578	1639.21912	-1051.28223	-190.68098	1599.39282	-922.10406	-194.35265	1593.12354	-986.70001	-197.25304	1441.69031	-969.75391	-242.54285	1114.23364	-991.29529	-90.00681	1359.75854	-993.32275	-57.19876	1183.78577	-894.05347	-270.39719	1276.81921	-1149.20715	-158.63814	1392.15076	-1211.52527	-220.98817	1199.59949	-1216.13123	-260.71881	1094.03467	-1234.72595	-284.87488	944.74658	-1192.58911	-258.52591	817.37170	-1226.58179	-320.05740	831.01288	-1225.60583	-306.28900	740.70355	-828.89063	-124.23589	1400.23083	-728.51746	-137.91518	1205.98730	-709.89197	-108.29093	1089.70447	-696.23804	-45.01030	989.41534	-738.10602	68.91811	896.56927	-695.82324	24.27683	871.19061	-697.30634	92.90347	823.94904	-1078.39612	-64.59103	954.63568	-860.57349	-72.35178	955.13367	-1059.26807	-223.44199	977.86646	-890.54865	-221.90910	983.84863	-1152.60535	-70.64868	643.85498	-1126.67322	-9.99063	492.75644	-1123.37732	11.19866	239.36406	-1088.64832	55.87669	70.87753	-1037.58411	25.74158	48.54361	-1099.16833	201.13799	69.24890	-814.28748	-168.54474	624.56348	-833.80115	-189.65941	499.36243	-840.52576	-301.66000	252.63960	-888.77362	-359.16852	75.05058	-933.86169	-402.94016	55.45031	-881.03113	-212.07683	29.97239	-989.87750	-158.17674	1691.21521																								 
75	0.740	-1046.42310	-46.79151	1648.27246	-914.74841	-51.85170	1637.38049	-1052.30786	-180.28342	1597.33093	-923.12054	-183.94786	1591.09534	-987.74396	-186.87785	1439.76379	-970.99689	-232.44098	1112.29126	-992.19891	-79.67993	1357.80371	-994.07251	-46.96029	1181.84607	-895.17206	-260.09814	1275.04724	-1150.12585	-148.24637	1390.15198	-1212.05554	-212.01978	1198.33484	-1216.38525	-252.62590	1093.06372	-1234.77795	-278.17947	943.95764	-1192.61987	-252.29504	816.58813	-1226.30566	-314.44580	830.57153	-1225.32922	-301.45529	740.12909	-829.84106	-114.03041	1398.29529	-729.31189	-127.64488	1204.12061	-710.64374	-97.54174	1088.01282	-697.08838	-33.33846	988.40277	-738.96222	81.95226	896.99030	-696.93787	37.52918	870.89105	-698.52808	106.27747	824.55408	-1079.43359	-53.47899	952.97919	-861.14795	-62.34435	953.38171	-1060.56030	-213.08817	975.83881	-891.81244	-212.20551	981.80109	-1154.16821	-61.39997	641.51282	-1127.37695	-0.89527	490.53714	-1124.65295	29.22073	238.28990	-1090.20850	80.32018	71.40772	-1039.41858	50.67802	48.06044	-1100.09998	225.97916	74.15317	-814.97211	-159.95853	623.06433	-834.49176	-181.89127	497.83929	-840.99957	-297.57504	252.58813	-888.89972	-358.42273	76.24240	-933.91541	-402.41382	57.25878	-881.14948	-211.97961	29.86788	-991.05853	-147.96242	1689.17310																								 
76	0.750	-1047.30981	-36.40160	1646.97461	-915.84021	-41.53200	1635.57263	-1053.44189	-169.98676	1595.30420	-924.23785	-173.61681	1589.13794	-988.80414	-176.46965	1437.93347	-972.31873	-222.25032	1110.37817	-993.12622	-69.27168	1355.89185	-994.92737	-36.72720	1179.87964	-896.32660	-250.09290	1273.28186	-1151.23926	-137.53899	1388.20496	-1212.71423	-202.64719	1196.98999	-1216.78235	-244.14565	1092.02673	-1234.91602	-270.98456	943.08899	-1192.73364	-245.51929	815.61780	-1226.10510	-308.08203	829.97327	-1225.12939	-295.82104	739.41022	-830.83087	-103.80843	1396.28943	-730.23578	-117.32716	1202.13330	-711.50830	-86.86079	1086.24817	-698.09625	-21.88285	987.21857	-740.15112	94.23037	897.00812	-697.97656	50.35217	870.38074	-699.91071	119.32590	824.80945	-1080.30298	-42.80253	951.13397	-861.69702	-52.46086	951.58661	-1061.91309	-202.56097	973.71729	-893.15594	-202.31822	979.71625	-1155.84509	-51.24131	639.49646	-1128.33789	8.92337	488.49976	-1125.81824	46.16630	237.42001	-1091.40173	102.61904	72.13400	-1040.76782	73.85108	47.90189	-1101.01038	248.62889	78.68719	-815.76135	-151.16136	621.68384	-835.23395	-173.62944	496.39029	-841.39117	-293.28323	252.78931	-888.89203	-357.50876	77.64567	-933.84082	-401.85022	59.21996	-881.49670	-212.16457	29.91156	-992.19342	-137.70430	1687.22083																								 
77	0.760	-1048.53394	-25.97119	1645.13501	-917.03723	-31.18157	1633.91138	-1054.62573	-159.55353	1593.32385	-925.49744	-163.20943	1587.25610	-990.02899	-166.04147	1436.19043	-973.70447	-212.01312	1108.48779	-994.19110	-58.80001	1354.04565	-995.83032	-26.38383	1178.04626	-897.66785	-239.96898	1271.55103	-1152.41711	-126.82900	1386.32849	-1213.59814	-192.94325	1195.55261	-1217.40051	-235.21231	1090.85840	-1235.23987	-263.19406	942.04517	-1193.21887	-239.07716	814.24756	-1226.11304	-301.00473	829.16638	-1225.00562	-289.42053	738.57245	-831.85474	-93.65702	1394.32336	-731.22827	-107.10716	1200.17065	-712.47742	-76.26752	1084.40076	-699.17828	-10.68522	985.87024	-741.64063	105.94612	896.69812	-699.48480	62.23390	869.71381	-701.48132	131.73743	824.84235	-1080.82092	-32.75328	949.14893	-862.36597	-42.32011	949.77496	-1063.50293	-192.13051	971.71454	-894.67218	-192.37018	977.70898	-1157.54456	-40.26928	637.77228	-1129.55542	19.08658	486.72891	-1126.96167	61.97541	236.58429	-1092.34692	122.66168	72.72607	-1041.59326	94.31898	47.92035	-1101.58142	268.96783	82.37866	-816.56372	-141.95700	620.35071	-835.88483	-165.02422	495.16122	-841.69165	-288.96594	253.32993	-888.78644	-356.50870	79.31563	-933.62653	-401.27365	61.66531	-881.58502	-212.06076	29.85618	-993.46375	-127.39040	1685.35352																								 
78	0.770	-1049.78528	-15.59622	1643.53857	-918.24469	-20.75999	1632.24084	-1055.89355	-149.04128	1591.45068	-926.72876	-152.70851	1585.52222	-991.29974	-155.55392	1434.54785	-975.21869	-201.67809	1106.67859	-995.20203	-48.32735	1352.34045	-996.92505	-15.92908	1176.31750	-899.13159	-229.93935	1269.79114	-1153.71448	-115.87179	1384.50305	-1214.57373	-182.84636	1194.02515	-1218.13550	-225.96176	1089.56494	-1235.76257	-254.81004	940.89557	-1193.54712	-230.82405	813.17407	-1226.36133	-293.40588	828.29602	-1225.06885	-282.25797	737.60059	-832.92163	-83.42168	1392.42029	-732.40472	-96.84552	1198.18555	-713.57007	-65.87243	1082.54053	-700.38867	0.23400	984.40472	-743.05353	117.38324	896.15851	-700.75232	74.11105	868.68561	-702.83887	143.80270	824.38623	-1082.00378	-21.92714	947.40698	-863.17902	-32.22466	948.07263	-1065.14404	-181.59088	969.90973	-896.28394	-182.19777	975.76904	-1159.19324	-28.79362	636.29346	-1130.80945	29.57921	485.23019	-1128.19299	76.51953	235.65094	-1093.19434	140.27295	72.86192	-1042.55786	112.47962	47.61285	-1102.07495	286.90863	84.93552	-817.35254	-132.58974	619.29236	-836.28790	-156.38509	494.04428	-841.91040	-284.52728	254.23030	-888.45789	-355.46622	81.44093	-933.39246	-400.67221	64.59727	-881.63995	-211.98421	29.83973	-994.74780	-117.00610	1683.58313																								 
